<svg xmlns="http://www.w3.org/2000/svg" viewBox="0 0 24 24">
  <path fill="#ff4fa3" d="M19.14 12.94c.04-.31.06-.63.06-.94s-.02-.63-.06-.94l2.03-1.58a.5.5 0 0 0 .12-.64l-1.92-3.32a.5.5 0 0 0-.6-.22l-2.39.96a7.14 7.14 0 0 0-1.63-.94L14.5 2.5a.5.5 0 0 0-.5-.5h-4a.5.5 0 0 0-.5.5l-.36 2.58c-.58.23-1.12.54-1.63.94l-2.39-.96a.5.5 0 0 0-.6.22L2.6 8.6a.5.5 0 0 0 .12.64l2.03 1.58c-.04.31-.06.63-.06.94s.02.63.06.94L2.72 14.3a.5.5 0 0 0-.12.64l1.92 3.32a.5.5 0 0 0 .6.22l2.39-.96c.51.4 1.05.71 1.63.94l.36 2.58a.5.5 0 0 0 .5.5h4a.5.5 0 0 0 .5-.5l.36-2.58c.58-.23 1.12-.54 1.63-.94l2.39.96a.5.5 0 0 0 .6-.22l1.92-3.32a.5.5 0 0 0-.12-.64l-2.03-1.36zM12 15.5A3.5 3.5 0 1 1 12 8a3.5 3.5 0 0 1 0 7.5z"/>
</svg>